<svg id="visual" viewBox="0 0 960 540" width="960" height="540" xmlns="http://www.w3.org/2000/svg" xmlns:xlink="http://www.w3.org/1999/xlink" version="1.1"><rect x="0" y="0" width="960" height="540" fill="#fff"></rect><g transform="translate(486.65282310627697 257.3378916780009)"><path d="M167.3 -255.8C223.3 -257.5 279.7 -225.8 270 -177.5C260.3 -129.3 184.7 -64.7 178.8 -3.4C172.8 57.8 236.7 115.7 252.3 174.1C267.8 232.6 235.2 291.7 185.1 279.6C135 267.6 67.5 184.4 6.8 172.6C-53.8 160.7 -107.7 220.2 -151.8 228.9C-196 237.5 -230.5 195.2 -229.9 148.6C-229.3 102 -193.7 51 -207.4 -7.9C-221.1 -66.8 -284.2 -133.7 -284.4 -179.7C-284.7 -225.8 -222.1 -251 -164.2 -248.3C-106.3 -245.5 -53.2 -214.8 1.2 -216.9C55.7 -219.1 111.3 -254.2 167.3 -255.8" fill="#111111"></path></g></svg>