<svg id="visual" viewBox="0 0 1920 5000" width="1920" height="5000" xmlns="http://www.w3.org/2000/svg" xmlns:xlink="http://www.w3.org/1999/xlink" version="1.1"><path d="M314 0L326.7 59.5C339.3 119 364.7 238 360.3 357C356 476 322 595 313 714C304 833 320 952 330.5 1071.2C341 1190.3 346 1309.7 342 1428.8C338 1548 325 1667 330.3 1786C335.7 1905 359.3 2024 356.7 2143C354 2262 325 2381 317.2 2500C309.3 2619 322.7 2738 327.5 2857C332.3 2976 328.7 3095 330.7 3214C332.7 3333 340.3 3452 342.2 3571.2C344 3690.3 340 3809.7 323.5 3928.8C307 4048 278 4167 276.2 4286C274.3 4405 299.7 4524 313.7 4643C327.7 4762 330.3 4881 331.7 4940.5L333 5000L0 5000L0 4940.5C0 4881 0 4762 0 4643C0 4524 0 4405 0 4286C0 4167 0 4048 0 3928.8C0 3809.7 0 3690.3 0 3571.2C0 3452 0 3333 0 3214C0 3095 0 2976 0 2857C0 2738 0 2619 0 2500C0 2381 0 2262 0 2143C0 2024 0 1905 0 1786C0 1667 0 1548 0 1428.8C0 1309.7 0 1190.3 0 1071.2C0 952 0 833 0 714C0 595 0 476 0 357C0 238 0 119 0 59.5L0 0Z" fill="#202020"></path><path d="M223 0L232.2 59.5C241.3 119 259.7 238 264 357C268.3 476 258.7 595 263 714C267.3 833 285.7 952 298.5 1071.2C311.3 1190.3 318.7 1309.7 301.3 1428.8C284 1548 242 1667 234.8 1786C227.7 1905 255.3 2024 273.2 2143C291 2262 299 2381 286.7 2500C274.3 2619 241.7 2738 229.3 2857C217 2976 225 3095 244.8 3214C264.7 3333 296.3 3452 312.3 3571.2C328.3 3690.3 328.7 3809.7 312.7 3928.8C296.7 4048 264.3 4167 263.2 4286C262 4405 292 4524 294.8 4643C297.7 4762 273.3 4881 261.2 4940.5L249 5000L0 5000L0 4940.5C0 4881 0 4762 0 4643C0 4524 0 4405 0 4286C0 4167 0 4048 0 3928.8C0 3809.7 0 3690.3 0 3571.2C0 3452 0 3333 0 3214C0 3095 0 2976 0 2857C0 2738 0 2619 0 2500C0 2381 0 2262 0 2143C0 2024 0 1905 0 1786C0 1667 0 1548 0 1428.8C0 1309.7 0 1190.3 0 1071.2C0 952 0 833 0 714C0 595 0 476 0 357C0 238 0 119 0 59.5L0 0Z" fill="#1e1e1e"></path><path d="M259 0L245.2 59.5C231.3 119 203.7 238 192 357C180.3 476 184.7 595 190.3 714C196 833 203 952 202.8 1071.2C202.7 1190.3 195.3 1309.7 202 1428.8C208.7 1548 229.3 1667 227 1786C224.7 1905 199.3 2024 190.7 2143C182 2262 190 2381 196.2 2500C202.3 2619 206.7 2738 210.3 2857C214 2976 217 3095 214.3 3214C211.7 3333 203.3 3452 206.3 3571.2C209.3 3690.3 223.7 3809.7 225.5 3928.8C227.3 4048 216.7 4167 218.5 4286C220.3 4405 234.7 4524 228.5 4643C222.3 4762 195.7 4881 182.3 4940.5L169 5000L0 5000L0 4940.5C0 4881 0 4762 0 4643C0 4524 0 4405 0 4286C0 4167 0 4048 0 3928.8C0 3809.7 0 3690.3 0 3571.2C0 3452 0 3333 0 3214C0 3095 0 2976 0 2857C0 2738 0 2619 0 2500C0 2381 0 2262 0 2143C0 2024 0 1905 0 1786C0 1667 0 1548 0 1428.8C0 1309.7 0 1190.3 0 1071.2C0 952 0 833 0 714C0 595 0 476 0 357C0 238 0 119 0 59.5L0 0Z" fill="#1b1b1b"></path><path d="M136 0L148 59.5C160 119 184 238 187 357C190 476 172 595 164.2 714C156.3 833 158.7 952 160.7 1071.2C162.7 1190.3 164.3 1309.7 167.7 1428.8C171 1548 176 1667 170.2 1786C164.3 1905 147.7 2024 153.2 2143C158.7 2262 186.3 2381 194.7 2500C203 2619 192 2738 179 2857C166 2976 151 3095 143.5 3214C136 3333 136 3452 135 3571.2C134 3690.3 132 3809.7 139 3928.8C146 4048 162 4167 163.8 4286C165.7 4405 153.3 4524 152.3 4643C151.3 4762 161.7 4881 166.8 4940.5L172 5000L0 5000L0 4940.5C0 4881 0 4762 0 4643C0 4524 0 4405 0 4286C0 4167 0 4048 0 3928.8C0 3809.7 0 3690.3 0 3571.2C0 3452 0 3333 0 3214C0 3095 0 2976 0 2857C0 2738 0 2619 0 2500C0 2381 0 2262 0 2143C0 2024 0 1905 0 1786C0 1667 0 1548 0 1428.8C0 1309.7 0 1190.3 0 1071.2C0 952 0 833 0 714C0 595 0 476 0 357C0 238 0 119 0 59.5L0 0Z" fill="#191919"></path><path d="M127 0L123.7 59.5C120.3 119 113.7 238 108 357C102.3 476 97.7 595 96.2 714C94.7 833 96.3 952 100 1071.2C103.7 1190.3 109.3 1309.7 115.5 1428.8C121.7 1548 128.3 1667 132 1786C135.7 1905 136.3 2024 136.2 2143C136 2262 135 2381 127.8 2500C120.7 2619 107.3 2738 102.3 2857C97.3 2976 100.7 3095 104.7 3214C108.7 3333 113.3 3452 122.5 3571.2C131.7 3690.3 145.3 3809.7 149.7 3928.8C154 4048 149 4167 147.7 4286C146.3 4405 148.7 4524 151.7 4643C154.7 4762 158.3 4881 160.2 4940.5L162 5000L0 5000L0 4940.5C0 4881 0 4762 0 4643C0 4524 0 4405 0 4286C0 4167 0 4048 0 3928.8C0 3809.7 0 3690.3 0 3571.2C0 3452 0 3333 0 3214C0 3095 0 2976 0 2857C0 2738 0 2619 0 2500C0 2381 0 2262 0 2143C0 2024 0 1905 0 1786C0 1667 0 1548 0 1428.8C0 1309.7 0 1190.3 0 1071.2C0 952 0 833 0 714C0 595 0 476 0 357C0 238 0 119 0 59.5L0 0Z" fill="#161616"></path><path d="M84 0L87.8 59.5C91.7 119 99.3 238 103 357C106.7 476 106.3 595 98.7 714C91 833 76 952 71.7 1071.2C67.3 1190.3 73.7 1309.7 79.7 1428.8C85.7 1548 91.3 1667 92 1786C92.7 1905 88.3 2024 82.2 2143C76 2262 68 2381 67.2 2500C66.3 2619 72.7 2738 74.3 2857C76 2976 73 3095 71.3 3214C69.7 3333 69.3 3452 74.7 3571.2C80 3690.3 91 3809.7 89.3 3928.8C87.7 4048 73.3 4167 70.7 4286C68 4405 77 4524 80.8 4643C84.7 4762 83.3 4881 82.7 4940.5L82 5000L0 5000L0 4940.5C0 4881 0 4762 0 4643C0 4524 0 4405 0 4286C0 4167 0 4048 0 3928.8C0 3809.7 0 3690.3 0 3571.2C0 3452 0 3333 0 3214C0 3095 0 2976 0 2857C0 2738 0 2619 0 2500C0 2381 0 2262 0 2143C0 2024 0 1905 0 1786C0 1667 0 1548 0 1428.8C0 1309.7 0 1190.3 0 1071.2C0 952 0 833 0 714C0 595 0 476 0 357C0 238 0 119 0 59.5L0 0Z" fill="#131313"></path></svg>