<?xml version="1.0" encoding="utf-8"?>
<svg viewBox="0 0 500 500" xmlns="http://www.w3.org/2000/svg">
  <rect x="39.395" y="35.305" width="19.629" height="20.72" style="fill: rgb(216, 216, 216); stroke: rgb(0, 0, 0);"/>
  <rect x="442.612" y="14.586" width="22.355" height="15.812" style="fill: rgb(216, 216, 216); stroke: rgb(0, 0, 0);"/>
  <rect x="377.726" y="53.844" width="28.899" height="32.988" style="fill: rgb(216, 216, 216); stroke: rgb(0, 0, 0);"/>
  <rect x="309.297" y="108.915" width="46.347" height="37.895" style="fill: rgb(216, 216, 216); stroke: rgb(0, 0, 0);"/>
  <rect x="234.051" y="134.815" width="2.999" height="46.892" style="fill: rgb(216, 216, 216); stroke: rgb(0, 0, 0);"/>
  <rect x="133.997" y="183.342" width="34.351" height="3.272" style="fill: rgb(216, 216, 216); stroke: rgb(0, 0, 0);"/>
  <rect x="123.637" y="116.003" width="0.818" height="45.802" style="fill: rgb(216, 216, 216); stroke: rgb(0, 0, 0);"/>
  <rect x="154.171" y="89.831" width="75.791" height="10.905" style="fill: rgb(216, 216, 216); stroke: rgb(0, 0, 0);"/>
  <rect x="182.525" y="117.094" width="13.086" height="30.534" style="fill: rgb(216, 216, 216); stroke: rgb(0, 0, 0);"/>
  <rect x="80.289" y="60.66" width="44.166" height="22.083" style="fill: rgb(216, 216, 216); stroke: rgb(0, 0, 0);"/>
  <rect x="212.786" y="39.122" width="48.528" height="18.266" style="fill: rgb(216, 216, 216); stroke: rgb(0, 0, 0);"/>
  <rect x="301.936" y="48.119" width="22.355" height="9.269" style="fill: rgb(216, 216, 216); stroke: rgb(0, 0, 0);"/>
  <rect x="394.629" y="113.004" width="41.712" height="30.262" style="fill: rgb(216, 216, 216); stroke: rgb(0, 0, 0);"/>
  <rect x="258.042" y="82.743" width="13.631" height="9.269" style="fill: rgb(216, 216, 216); stroke: rgb(0, 0, 0);"/>
  <rect x="261.587" y="96.919" width="28.899" height="28.626" style="fill: rgb(216, 216, 216); stroke: rgb(0, 0, 0);"/>
  <rect x="123.637" y="20.038" width="38.713" height="18.811" style="fill: rgb(216, 216, 216); stroke: rgb(0, 0, 0);"/>
  <rect x="26.309" y="114.367" width="21.265" height="16.63" style="fill: rgb(216, 216, 216); stroke: rgb(0, 0, 0);"/>
  <rect x="53.026" y="135.905" width="42.803" height="46.619" style="fill: rgb(216, 216, 216); stroke: rgb(0, 0, 0);"/>
  <rect x="260.769" y="158.533" width="74.7" height="26.99" style="fill: rgb(216, 216, 216); stroke: rgb(0, 0, 0);"/>
  <rect x="369.002" y="139.177" width="13.086" height="28.899" style="fill: rgb(216, 216, 216); stroke: rgb(0, 0, 0);"/>
  <rect x="454.062" y="131.543" width="19.902" height="34.079" style="fill: rgb(216, 216, 216); stroke: rgb(0, 0, 0);"/>
  <rect x="337.377" y="18.675" width="25.082" height="22.355" style="fill: rgb(216, 216, 216); stroke: rgb(0, 0, 0);"/>
  <rect x="443.157" y="49.755" width="16.903" height="15.267" style="fill: rgb(216, 216, 216); stroke: rgb(0, 0, 0);"/>
  <rect x="170.256" y="56.57" width="11.723" height="8.997" style="fill: rgb(216, 216, 216); stroke: rgb(0, 0, 0);"/>
  <rect x="189.34" y="172.71" width="24.264" height="35.169" style="fill: rgb(216, 216, 216); stroke: rgb(0, 0, 0);"/>
  <rect x="409.078" y="162.895" width="18.811" height="21.265" style="fill: rgb(216, 216, 216); stroke: rgb(0, 0, 0);"/>
  <rect x="14.586" y="469.057" width="20.72" height="17.721" style="fill: rgb(216, 216, 216); stroke: rgb(0, 0, 0);"/>
  <rect x="63.113" y="290.213" width="30.534" height="29.989" style="fill: rgb(216, 216, 216); stroke: rgb(0, 0, 0);"/>
  <rect x="428.435" y="419.711" width="27.535" height="50.436" style="fill: rgb(216, 216, 216); stroke: rgb(0, 0, 0);"/>
  <rect x="402.535" y="381.27" width="44.166" height="0.818" style="fill: rgb(216, 216, 216); stroke: rgb(0, 0, 0);"/>
  <rect x="356.734" y="380.452" width="27.263" height="62.159" style="fill: rgb(216, 216, 216); stroke: rgb(0, 0, 0);"/>
  <rect x="96.647" y="390.267" width="41.985" height="18.811" style="fill: rgb(216, 216, 216); stroke: rgb(0, 0, 0);"/>
  <rect x="34.215" y="427.617" width="51.254" height="23.173" style="fill: rgb(216, 216, 216); stroke: rgb(0, 0, 0);"/>
  <rect x="43.212" y="348.555" width="22.628" height="44.984" style="fill: rgb(216, 216, 216); stroke: rgb(0, 0, 0);"/>
  <rect x="103.735" y="347.465" width="13.359" height="9.542" style="fill: rgb(216, 216, 216); stroke: rgb(0, 0, 0);"/>
  <rect x="156.08" y="318.021" width="13.631" height="7.906" style="fill: rgb(216, 216, 216); stroke: rgb(0, 0, 0);"/>
  <rect x="222.601" y="342.83" width="10.905" height="16.358" style="fill: rgb(216, 216, 216); stroke: rgb(0, 0, 0);"/>
  <rect x="259.406" y="404.444" width="21.538" height="25.082" style="fill: rgb(216, 216, 216); stroke: rgb(0, 0, 0);"/>
  <rect x="243.866" y="193.975" width="18.266" height="23.991" style="fill: rgb(216, 216, 216); stroke: rgb(0, 0, 0);"/>
  <rect x="349.373" y="200.518" width="16.63" height="31.08" style="fill: rgb(216, 216, 216); stroke: rgb(0, 0, 0);"/>
  <rect x="413.713" y="194.52" width="49.346" height="40.894" style="fill: rgb(216, 216, 216); stroke: rgb(0, 0, 0);"/>
  <rect x="261.859" y="252.863" width="71.974" height="52.617" style="fill: rgb(216, 216, 216); stroke: rgb(0, 0, 0);"/>
  <rect x="380.725" y="261.859" width="17.721" height="14.722" style="fill: rgb(216, 216, 216); stroke: rgb(0, 0, 0);"/>
  <rect x="430.616" y="278.762" width="18.539" height="62.432" style="fill: rgb(216, 216, 216); stroke: rgb(0, 0, 0);"/>
  <rect x="352.372" y="313.113" width="31.352" height="16.903" style="fill: rgb(216, 216, 216); stroke: rgb(0, 0, 0);"/>
  <rect x="327.835" y="429.253" width="12.541" height="40.894" style="fill: rgb(216, 216, 216); stroke: rgb(0, 0, 0);"/>
  <rect x="300.027" y="399.809" width="40.076" height="19.902" style="fill: rgb(216, 216, 216); stroke: rgb(0, 0, 0);"/>
  <rect x="302.481" y="437.432" width="15.812" height="14.177" style="fill: rgb(216, 216, 216); stroke: rgb(0, 0, 0);"/>
  <rect x="151.172" y="345.283" width="46.892" height="29.716" style="fill: rgb(216, 216, 216); stroke: rgb(0, 0, 0);"/>
  <rect x="253.68" y="324.291" width="16.63" height="13.086" style="fill: rgb(216, 216, 216); stroke: rgb(0, 0, 0);"/>
  <rect x="290.758" y="348.282" width="22.083" height="14.177" style="fill: rgb(216, 216, 216); stroke: rgb(0, 0, 0);"/>
  <rect x="327.29" y="339.286" width="77.972" height="20.174" style="fill: rgb(216, 216, 216); stroke: rgb(0, 0, 0);"/>
  <rect x="211.696" y="384.815" width="81.516" height="16.085" style="fill: rgb(216, 216, 216); stroke: rgb(0, 0, 0);"/>
  <rect x="249.591" y="350.191" width="23.173" height="21.538" style="fill: rgb(216, 216, 216); stroke: rgb(0, 0, 0);"/>
  <rect x="183.07" y="241.14" width="60.796" height="79.062" style="fill: rgb(216, 216, 216); stroke: rgb(0, 0, 0);"/>
  <rect x="110.005" y="223.146" width="43.893" height="60.251" style="fill: rgb(216, 216, 216); stroke: rgb(0, 0, 0);"/>
  <rect x="36.123" y="207.606" width="48.528" height="20.447" style="fill: rgb(216, 216, 216); stroke: rgb(0, 0, 0);"/>
  <rect x="37.759" y="260.496" width="15.812" height="5.725" style="fill: rgb(216, 216, 216); stroke: rgb(0, 0, 0);"/>
  <rect x="72.928" y="266.767" width="14.177" height="14.177" style="fill: rgb(216, 216, 216); stroke: rgb(0, 0, 0);"/>
  <rect x="99.373" y="233.233" width="0.545" height="34.624" style="fill: rgb(216, 216, 216); stroke: rgb(0, 0, 0);"/>
  <rect x="110.278" y="301.936" width="15.812" height="20.72" style="fill: rgb(216, 216, 216); stroke: rgb(0, 0, 0);"/>
  <rect x="156.625" y="393.539" width="20.447" height="27.263" style="fill: rgb(216, 216, 216); stroke: rgb(0, 0, 0);"/>
  <rect x="193.702" y="413.713" width="38.168" height="29.989" style="fill: rgb(216, 216, 216); stroke: rgb(0, 0, 0);"/>
  <rect x="104.826" y="451.608" width="62.432" height="22.901" style="fill: rgb(216, 216, 216); stroke: rgb(0, 0, 0);"/>
  <rect x="254.771" y="442.066" width="24.537" height="22.628" style="fill: rgb(216, 216, 216); stroke: rgb(0, 0, 0);"/>
  <rect x="399.809" y="403.353" width="0.409" height="57.525" style="fill: rgb(216, 216, 216); stroke: rgb(0, 0, 0);"/>
  <rect x="286.941" y="198.882" width="7.906" height="8.997" style="fill: rgb(216, 216, 216); stroke: rgb(0, 0, 0);"/>
  <rect x="300.572" y="212.241" width="7.088" height="6.27" style="fill: rgb(216, 216, 216); stroke: rgb(0, 0, 0);"/>
  <rect x="324.018" y="203.789" width="9.269" height="32.715" style="fill: rgb(216, 216, 216); stroke: rgb(0, 0, 0);"/>
  <rect x="276.309" y="226.963" width="37.895" height="1.363" style="fill: rgb(216, 216, 216); stroke: rgb(0, 0, 0);"/>
</svg>